<svg id="Layer_1" data-name="Layer 1" xmlns="http://www.w3.org/2000/svg" viewBox="0 0 246.82 158.81"><defs><style>.cls-1,.cls-6{fill:#612c80;}.cls-2{fill:#fff;}.cls-3{fill:#f26a21;}.cls-4{fill:#fec909;}.cls-5{font-size:23.05px;fill:#2e7f46;font-family:VinerHandITC, Viner Hand ITC;}.cls-6{font-size:85.38px;font-family:MyriadPro-Regular, Myriad Pro;}.cls-7{letter-spacing:0.01em;}.cls-8{letter-spacing:0em;}.cls-9{letter-spacing:-0.03em;}.cls-10{letter-spacing:-0.01em;}</style></defs><title>Logo</title><path class="cls-1" d="M306.41,285.69a40.18,40.18,0,0,1-3.84,7.56,27.64,27.64,0,0,1-2.79,4.11c-2.53,2.91-4.21,2.86-4.87,5.15-.47,1.68-.07,3.07-1.17,4-.61.51-1.53.58-3.37.73-1.38.11-3.09,0-3.8,0-.94,0-1.09-.07-1.95,0l-.37,0c-.45,0-1,0-1.58,0l-1.27,0c-2.4-.08-3.62-.14-4.38-.79-1-.88-.66-2-1.19-3.72-.82-2.61-2.88-3.92-4.25-5-4.68-3.85-7-10.34-7.69-12.47-1.06-3.24-3-9.05-.57-15.7a22.1,22.1,0,0,1,9.46-11.09,23.81,23.81,0,0,1,6.1-2.26,27.76,27.76,0,0,1,7-.66c3.47.12,9.84.34,15.29,5a21,21,0,0,1,6.47,10.73C309.25,277.66,307.33,283.14,306.41,285.69Z" transform="translate(-172.92 -255.51)"/><path class="cls-2" d="M305.7,281.49a31,31,0,0,1-2.3,6.8,47.24,47.24,0,0,1-6.36,8.94c-.65.76-2.42,1.69-3.54,3.8a10.25,10.25,0,0,0-1.15,4.16h-4.78c0-3.81.06-7.61.09-11.41A5.77,5.77,0,0,0,297,290.5a9.7,9.7,0,0,0,5.13-6.19,9.37,9.37,0,0,0-.71-6.27c.19-.42,2.12-4.84-.35-8.85a9.11,9.11,0,0,0-4.25-3.54,5.89,5.89,0,0,0-6.37-4.59,5.77,5.77,0,0,0-4.59,4.42l-.09,40.86a1.58,1.58,0,0,0,.69.67l.24.09-2.6,0,.11,0a2.78,2.78,0,0,0,.46-.13q0-20.62,0-41.26a5.56,5.56,0,0,0-11,0c-.65.46-5.9,4.32-5.44,9.56a7.86,7.86,0,0,0,.66,2.52c-.23.65-1.75,5.13.8,9.15a9.8,9.8,0,0,0,3.58,3.32,6.24,6.24,0,0,0,4.24,4.64,6.47,6.47,0,0,0,5.51-1q-.06,5.69-.11,11.35l-5,.09a9.06,9.06,0,0,0-.52-3.19c-1-2.64-2.94-3.91-4.43-5.22-2.48-2.18-3.61-4.42-5.57-8.31-1.31-2.6-3.29-6.54-3.27-11.59,0-1.29.18-9.82,7.07-15.47,5.93-4.86,12.85-4.33,16.19-4.07a21.1,21.1,0,0,1,11.23,3.63c1.08.76,6.74,4.94,7.78,11.93A22.5,22.5,0,0,1,305.7,281.49Z" transform="translate(-172.92 -255.51)"/><path class="cls-3" d="M282.67,307l1.38,0A3.66,3.66,0,0,1,282.67,307Z" transform="translate(-172.92 -255.51)"/><path class="cls-3" d="M287.44,307.11a1.56,1.56,0,0,1-.79,0Z" transform="translate(-172.92 -255.51)"/><path class="cls-4" d="M283,290.59a4,4,0,0,1-7.83-.39,4.23,4.23,0,0,1,1.06-3.32c0-.83-.23-1-.33-1.06-.48-.25-1.47.53-1.92,1.39a2.9,2.9,0,0,0-.33,1.26,7.29,7.29,0,0,1-3.72-4.57,6.93,6.93,0,0,1,.27-4.12,4.81,4.81,0,0,0,1.85,1.73,5.58,5.58,0,0,1,1.2.59,4,4,0,0,1,1.06,1.6c.51.94,1.57,1.25,3.05,1.85,1.11.45,1.45.43,1.66.8.33.6-.83,1.21-1,2.79-.07.72.12.92.2,1,.35.29,1,0,1.26-.13,1.43-.81,1-4,1-4.38a1.52,1.52,0,0,0,1.46-1.06,1.4,1.4,0,0,0-.73-1.66c-.53-.11-.8.65-1.53,1-1.64.78-4.9-.85-5.17-2.72s2.12-2.89,1.59-4.12a1.61,1.61,0,0,0-1.86-.79c-1.2.5-.52,3.39-1.19,3.58-.85.24-4.07-3.75-3.05-7.76a7.6,7.6,0,0,1,3.51-4.44l.93,2c-.86-2,.33.6.33.6.56,1.21-2.92,1.78-2.85,2.59,0,.23.29.52,1.26.79a4.18,4.18,0,0,1,4.51-1.85,3.9,3.9,0,0,1,3.05,3.51c-.08,1.59-1.94,2.33-1.59,3.45a1.38,1.38,0,0,0,1.33.93c1.23-.2,2.49-3.06,1.86-5.5a5.76,5.76,0,0,0-2.26-3.12,3.67,3.67,0,0,0,1.33-4.18c-.39-.89-1.28-1.84-1.79-1.66a1.12,1.12,0,0,0-.4,1.33c.15.41.49.42.66.73.41.75-.55,2.61-1.72,2.78s-2.79-1.64-2.86-3.38a4.06,4.06,0,0,1,3.65-4,4.16,4.16,0,0,1,3.78,2.06,3.75,3.75,0,0,1,.33.79C283.71,267.92,283.13,286.46,283,290.59Z" transform="translate(-172.92 -255.51)"/><path class="cls-4" d="M287.44,265.52v25a4.07,4.07,0,1,0,7.36-3.19c-.54-.59-.69-1.24-.46-1.52s.9-.2,1.33.07c1.07.66.57,2.33,1.19,2.58.78.31,2.84-1.79,3.52-4.38a8,8,0,0,0-.14-4.31,5,5,0,0,1-2.05,1.93,4.91,4.91,0,0,1-1.13.39,4.17,4.17,0,0,1-1.79,2.46c-1.13.65-2.1.26-2.92,1a2.57,2.57,0,0,0-.8,2.39c.18.79,1,.9,1,1.46a1.15,1.15,0,0,1-1.06.93c-.88,0-1.62-1.43-1.79-2.52a4.07,4.07,0,0,1,.53-2.65c-1.2,0-1.92-.79-1.86-1.33s.53-.77,1.13-.93a4.25,4.25,0,0,0,4.51.53c1.8-1.06,2.48-4.16.66-6.63,0-.29,0-.71.2-.86.4-.27,1.25.37,1.66.79a4.1,4.1,0,0,1,1,2.92,7.3,7.3,0,0,0,3.12-4.78,7.41,7.41,0,0,0-3.65-7.29,4.18,4.18,0,0,1-.86,2.12,3.73,3.73,0,0,1-.66.66,3.2,3.2,0,0,1,2.85,1.8c.07.17.37.77.13,1.06s-1.54-.15-1.66-.2c-1.08-.5-1.12-1.11-1.85-1.46a3.47,3.47,0,0,0-3.19.53c-1.95,1.34-2.32,4.43-1.32,5.5.36.39.87.49.93.93a1.25,1.25,0,0,1-1.07,1.2c-1,0-2.3-2.44-2.12-4.65a6.11,6.11,0,0,1,2.39-4.11c-.22-.22-2.08-2.19-1.46-4.11.32-1,1.32-2,1.79-1.79s.5.92.33,1.52-.6.76-.66,1.13c-.14.88,1.37,2.37,2.65,2.19,1.43-.2,2.38-2.46,2-4.24a4,4,0,0,0-4.18-3.12,4.25,4.25,0,0,0-3,2.25Z" transform="translate(-172.92 -255.51)"/><rect class="cls-1" x="104.3" y="52.76" width="15.74" height="3.54" rx="1.77"/><rect class="cls-1" x="104.3" y="57.26" width="15.74" height="3.54" rx="1.77"/><path class="cls-1" d="M282.73,317.32a1.93,1.93,0,0,0,.16,1.19,1.56,1.56,0,0,0,.37.46l1.92,0a1.2,1.2,0,0,0,.58-.48,1.88,1.88,0,0,0,.14-.29v-.94l-3.3,0" transform="translate(-172.92 -255.51)"/><path class="cls-1" d="M284.25,306.74v.52c-.45,0-1,0-1.58,0v-.55Z" transform="translate(-172.92 -255.51)"/><path class="cls-1" d="M287,309.09c3.22,0,3.23-5,0-5s-3.22,5,0,5Z" transform="translate(-172.92 -255.51)"/><path class="cls-1" d="M287.24,309.14c.23,0,.47-.05.7-.1h0l0,0a2.22,2.22,0,0,0,.31-.13l.31-.13a1.91,1.91,0,0,0,.71-.64,1.88,1.88,0,0,0,.44-.85,1.9,1.9,0,0,0,.05-1,2,2,0,0,0-.3-.93l-.39-.51a2.5,2.5,0,0,0-1.1-.64l-.67-.09a2.53,2.53,0,0,0-1.26.34h0l.6-.25-.1,0,.66-.09h0a2,2,0,0,0-1,.21,2,2,0,0,0-.81.52,2.83,2.83,0,0,0-.73,1.77l.09.66a2.53,2.53,0,0,0,.64,1.11l.51.39a2.53,2.53,0,0,0,1.26.34Z" transform="translate(-172.92 -255.51)"/><path class="cls-1" d="M287.16,309.15c3.22,0,3.22-5,0-5s-3.22,5,0,5Z" transform="translate(-172.92 -255.51)"/><path class="cls-1" d="M287.15,304.17h-.08l-.66.09h-.06a1.94,1.94,0,0,0-.85.45,2.26,2.26,0,0,0-.94,1.63,1.89,1.89,0,0,0,.05,1l.25.6a2.53,2.53,0,0,0,.89.89l.6.26a2.72,2.72,0,0,0,1.33,0l.06,0-.67.09h.08a1.88,1.88,0,0,0,1-.22,1.83,1.83,0,0,0,.8-.51,1.85,1.85,0,0,0,.52-.81,1.88,1.88,0,0,0,.22-1l-.09-.66a2.5,2.5,0,0,0-.65-1.11l-.5-.39a2.43,2.43,0,0,0-1.26-.34Z" transform="translate(-172.92 -255.51)"/><text class="cls-5" transform="translate(15.51 144.63) scale(0.6 1)">Encephalon Software Pioneering</text><text class="cls-6" transform="translate(0 111.4) scale(0.43 1)"><tspan class="cls-7">M</tspan><tspan class="cls-8" x="69.16" y="0">olinge </tspan><tspan class="cls-9" x="312.15" y="0">L</tspan><tspan class="cls-10" x="350.14" y="0">y</tspan><tspan x="389.5" y="0">onga</tspan></text></svg>